<?xml version="1.0" encoding="UTF-8" standalone="no"?>
<!-- Created with Inkscape (http://www.inkscape.org/) -->

<svg
   xmlns:dc="http://purl.org/dc/elements/1.1/"
   xmlns:cc="http://creativecommons.org/ns#"
   xmlns:rdf="http://www.w3.org/1999/02/22-rdf-syntax-ns#"
   xmlns:svg="http://www.w3.org/2000/svg"
   xmlns="http://www.w3.org/2000/svg"
   xmlns:sodipodi="http://sodipodi.sourceforge.net/DTD/sodipodi-0.dtd"
   xmlns:inkscape="http://www.inkscape.org/namespaces/inkscape"
   width="744.09448819"
   height="1052.3622047"
   id="svg2"
   version="1.1"
   inkscape:version="0.48.4 r9939"
   sodipodi:docname="cruiser.svg">
  <defs
     id="defs4" />
  <sodipodi:namedview
     id="base"
     pagecolor="#ffffff"
     bordercolor="#666666"
     borderopacity="1.0"
     inkscape:pageopacity="0.0"
     inkscape:pageshadow="2"
     inkscape:zoom="0.7"
     inkscape:cx="576.81131"
     inkscape:cy="618.29665"
     inkscape:document-units="px"
     inkscape:current-layer="layer1"
     showgrid="false"
     showguides="false"
     inkscape:snap-global="false"
     inkscape:window-width="1264"
     inkscape:window-height="1002"
     inkscape:window-x="1280"
     inkscape:window-y="0"
     inkscape:window-maximized="0">
    <inkscape:grid
       type="xygrid"
       id="grid2987" />
  </sodipodi:namedview>
  <metadata
     id="metadata7">
    <rdf:RDF>
      <cc:Work
         rdf:about="">
        <dc:format>image/svg+xml</dc:format>
        <dc:type
           rdf:resource="http://purl.org/dc/dcmitype/StillImage" />
        <dc:title />
      </cc:Work>
    </rdf:RDF>
  </metadata>
  <g
     inkscape:label="Layer 1"
     inkscape:groupmode="layer"
     id="layer1">
    <path
       style="fill:#d40000;stroke:#000000;stroke-width:1.01585722000000000"
       d="m 238.86508,635.79483 64.57588,-57.99613 0,179.98801 -64.57588,57.99613 z"
       id="rect3003"
       inkscape:connector-curvature="0"
       sodipodi:nodetypes="ccccc" />
    <path
       style="fill:#d40000;stroke:#000000;stroke-width:1.01853883000000000"
       d="m 202.14286,563.80005 c 21.75915,0 39.27644,17.51729 39.27644,39.27645 l 0,236.53882 c 0,21.75915 -17.51729,-0.1195 -39.27644,-0.1195 -21.75916,0 -39.27645,21.87865 -39.27645,0.1195 l 0,-236.53882 c 0,-21.75916 17.51729,-39.27645 39.27645,-39.27645 z"
       id="rect2994"
       inkscape:connector-curvature="0"
       sodipodi:nodetypes="sssssss" />
    <path
       sodipodi:nodetypes="ccccc"
       inkscape:connector-curvature="0"
       id="path3006"
       d="m 495.41479,635.79784 -66.07938,-57.99328 0,179.97914 66.07938,57.99328 z"
       style="fill:#d40000;stroke:#000000;stroke-width:1.02758967999999990" />
    <rect
       style="fill:#d40000;stroke:#000000;stroke-width:1.13003170000000000"
       id="rect2999"
       width="131.29855"
       height="301.29855"
       x="301.49359"
       y="458.14151"
       ry="0" />
    <path
       style="fill:#d40000;stroke:#000000"
       d="m 545.48236,205.85435 c 0,94.28372 -0.30747,154.75533 -0.90781,214.36985 -0.87991,87.37551 -246.24002,127.0617 -340.52374,127.0617 -94.28372,0 -341.59865,-61.85707 -343.29335,-149.22059 -1.29634,-66.82784 1.8618,-97.92724 1.8618,-192.21096 0,-188.567433 152.864114,-341.43154 341.43155,-341.43154 188.56744,0 341.43155,152.864107 341.43155,341.43154 z"
       id="path2985"
       inkscape:connector-curvature="0"
       sodipodi:nodetypes="sssssss"
       transform="matrix(0.60117575,0,0,0.60117575,244.01498,176.0439)" />
    <path
       sodipodi:nodetypes="sssssss"
       inkscape:connector-curvature="0"
       id="path2997"
       d="m 530.14286,563.80005 c 21.75915,0 39.27644,17.51729 39.27644,39.27645 l 0,236.53882 c 0,21.75915 -17.51729,-0.1195 -39.27644,-0.1195 -21.75916,0 -39.27645,21.87865 -39.27645,0.1195 l 0,-236.53882 c 0,-21.75916 17.51729,-39.27645 39.27645,-39.27645 z"
       style="fill:#d40000;stroke:#000000;stroke-width:1.01853883000000000" />
    <path
       sodipodi:nodetypes="sssssss"
       inkscape:connector-curvature="0"
       id="path5332"
       d="m 542.69402,299.79854 c 0,48.62909 -0.15858,79.81876 -0.46822,110.56638 -0.45384,45.06601 -127.00418,65.53511 -175.63326,65.53511 -48.62908,0 -176.18767,-31.90427 -177.06175,-76.96409 -0.66862,-34.46806 0.96027,-50.50831 0.96027,-99.1374 0,-97.25816 78.84332,-176.10147 176.10148,-176.10147 97.25817,0 176.10148,78.84331 176.10148,176.10147 z"
       style="fill:#999999;stroke:#000000;stroke-width:0.51577388999999996" />
    <path
       style="fill:#999999;stroke:#000000;stroke-width:0.81578726"
       d="m 530.10802,579.45936 c 15.67875,0 28.30097,15.59538 28.30097,34.96725 l 0,210.58703 c 0,19.37185 -12.62222,-0.10633 -28.30097,-0.10633 -15.67876,0 -28.30098,19.47823 -28.30098,0.10633 l 0,-210.58703 c 0,-19.37187 12.62222,-34.96725 28.30098,-34.96725 z"
       id="path5334"
       inkscape:connector-curvature="0"
       sodipodi:nodetypes="sssssss" />
    <path
       sodipodi:nodetypes="sssssss"
       inkscape:connector-curvature="0"
       id="path5336"
       d="m 202.1777,579.45936 c 15.67875,0 28.30097,15.59538 28.30097,34.96725 l 0,210.58703 c 0,19.37185 -12.62222,-0.10633 -28.30097,-0.10633 -15.67876,0 -28.30098,19.47823 -28.30098,0.10633 l 0,-210.58703 c 0,-19.37187 12.62222,-34.96725 28.30098,-34.96725 z"
       style="fill:#999999;stroke:#000000;stroke-width:0.81578726" />
  </g>
</svg>
